<!-- https://iconoir.com/ -->
<svg xmlns="http://www.w3.org/2000/svg">
    <symbol id="arrow-left" fill="none" stroke-width="1.5" viewBox="0 0 24 24">
        <path stroke="currentColor" stroke-linecap="round" stroke-linejoin="round" d="M21 12H3m0 0 8.5-8.5M3 12l8.5 8.5"/>
    </symbol>
    <symbol id="lock" fill="none" stroke-width="1.5" viewBox="1 1 22 22">
        <path stroke="currentColor" stroke-linecap="round" stroke-linejoin="round" d="M16 12h1.4a.6.6 0 0 1 .6.6v6.8a.6.6 0 0 1-.6.6H6.6a.6.6 0 0 1-.6-.6v-6.8a.6.6 0 0 1 .6-.6H8m8 0V8c0-1.333-.8-4-4-4S8 6.667 8 8v4m8 0H8"/>
    </symbol>
    <symbol id="save-floppy-disk" fill="none" stroke-width="1.5" viewBox="0 0 24 24">
        <path stroke="currentColor" d="M3 19V5a2 2 0 0 1 2-2h11.172a2 2 0 0 1 1.414.586l2.828 2.828A2 2 0 0 1 21 7.828V19a2 2 0 0 1-2 2H5a2 2 0 0 1-2-2z"/>
        <path stroke="currentColor" d="M8.6 9h6.8a.6.6 0 0 0 .6-.6V3.6a.6.6 0 0 0-.6-.6H8.6a.6.6 0 0 0-.6.6v4.8a.6.6 0 0 0 .6.6zM6 13.6V21h12v-7.4a.6.6 0 0 0-.6-.6H6.6a.6.6 0 0 0-.6.6z"/>
    </symbol>
    <symbol id="trash" fill="none" stroke-width="1.5" viewBox="0 0 24 24">
        <path stroke="currentColor" stroke-linecap="round" stroke-linejoin="round" d="m20 9-1.995 11.346A2 2 0 0 1 16.035 22h-8.07a2 2 0 0 1-1.97-1.654L4 9m17-3h-5.625M3 6h5.625m0 0V4a2 2 0 0 1 2-2h2.75a2 2 0 0 1 2 2v2m-6.75 0h6.75"/>
    </symbol>
</svg>