<!-- https://iconoir.com/ -->
<svg xmlns="http://www.w3.org/2000/svg">
    <symbol id="arrow-left" fill="none" stroke-width="1.5" viewBox="0 0 24 24">
        <path stroke="currentColor" stroke-linecap="round" stroke-linejoin="round" d="M21 12H3m0 0 8.5-8.5M3 12l8.5 8.5"/>
    </symbol>
    <symbol id="lock" fill="none" stroke-width="1.5" viewBox="1 1 22 22">
        <path stroke="currentColor" stroke-linecap="round" stroke-linejoin="round" d="M16 12h1.4a.6.6 0 0 1 .6.6v6.8a.6.6 0 0 1-.6.6H6.6a.6.6 0 0 1-.6-.6v-6.8a.6.6 0 0 1 .6-.6H8m8 0V8c0-1.333-.8-4-4-4S8 6.667 8 8v4m8 0H8"/>
    </symbol>
    <symbol id="save-floppy-disk" fill="none" stroke-width="1.5" viewBox="0 0 24 24">
        <path stroke="currentColor" d="M3 19V5a2 2 0 0 1 2-2h11.172a2 2 0 0 1 1.414.586l2.828 2.828A2 2 0 0 1 21 7.828V19a2 2 0 0 1-2 2H5a2 2 0 0 1-2-2z"/>
        <path stroke="currentColor" d="M8.6 9h6.8a.6.6 0 0 0 .6-.6V3.6a.6.6 0 0 0-.6-.6H8.6a.6.6 0 0 0-.6.6v4.8a.6.6 0 0 0 .6.6zM6 13.6V21h12v-7.4a.6.6 0 0 0-.6-.6H6.6a.6.6 0 0 0-.6.6z"/>
    </symbol>
    <symbol id="trash" fill="none" stroke-width="1.5" viewBox="0 0 24 24">
        <path stroke="currentColor" stroke-linecap="round" stroke-linejoin="round" d="m20 9-1.995 11.346A2 2 0 0 1 16.035 22h-8.07a2 2 0 0 1-1.97-1.654L4 9m17-3h-5.625M3 6h5.625m0 0V4a2 2 0 0 1 2-2h2.75a2 2 0 0 1 2 2v2m-6.75 0h6.75"/>
    </symbol>
    <symbol id="edit-pencil" fill="none" stroke-width="1.5" viewBox="0 0 24 24">
        <path stroke="currentColor" stroke-linecap="round" stroke-linejoin="round" d="m14.363 5.652 1.48-1.48a2 2 0 0 1 2.829 0l1.414 1.414a2 2 0 0 1 0 2.828l-1.48 1.48m-4.243-4.242-9.616 9.615a2 2 0 0 0-.578 1.238l-.242 2.74a1 1 0 0 0 1.084 1.085l2.74-.242a2 2 0 0 0 1.24-.578l9.615-9.616m-4.243-4.242 4.243 4.242"/>
    </symbol>
    <symbol id="share" fill="none" stroke-width="1.5" viewBox="0 0 24 24">
        <path stroke="currentColor" stroke-linecap="round" stroke-linejoin="round" d="M18 22a3 3 0 1 0 0-6 3 3 0 0 0 0 6zm0-14a3 3 0 1 0 0-6 3 3 0 0 0 0 6zM6 15a3 3 0 1 0 0-6 3 3 0 0 0 0 6z"/>
        <path stroke="currentColor" d="m15.5 6.5-7 4m0 3 7 4"/>
    </symbol>
    <symbol id="globe" fill="none" stroke-width="1.5" viewBox="0 0 24 24">
        <path stroke="currentColor" stroke-linecap="round" stroke-linejoin="round" d="M12 22c5.523 0 10-4.477 10-10S17.523 2 12 2 2 6.477 2 12s4.477 10 10 10z"/>
        <path stroke="currentColor" stroke-linecap="round" stroke-linejoin="round" d="m2.5 12.5 5.5 2L7 18l1 3m9-.5-.5-2.5-2.5-1v-3.5l3-1 4.5.5M19 5.5 18.5 7l-3.5.5v3l2.5-1h2l2 1m-19 0 2.5-2L7.5 8l2-3-1-2"/>
    </symbol>
    <symbol id="plus" fill="none" stroke-width="1.5" viewBox="0 0 24 24">
        <path stroke="currentColor" stroke-linecap="round" stroke-linejoin="round" d="M6 12h6m6 0h-6m0 0V6m0 6v6"/>
    </symbol>
    <symbol id="search" fill="none" stroke-width="1.5" viewBox="0 0 24 24">
        <path stroke="currentColor" stroke-linecap="round" stroke-linejoin="round" d="m17 17 4 4M3 11a8 8 0 1 0 16 0 8 8 0 0 0-16 0z"/>
    </symbol>
    <symbol id="media-image" fill="none" stroke-width="1.5" viewBox="0 0 24 24">
        <path stroke="currentColor" stroke-linecap="round" stroke-linejoin="round" d="M21 3.6v16.8a.6.6 0 0 1-.6.6H3.6a.6.6 0 0 1-.6-.6V3.6a.6.6 0 0 1 .6-.6h16.8a.6.6 0 0 1 .6.6z"/>
        <path stroke="currentColor" stroke-linecap="round" stroke-linejoin="round" d="m3 16 7-3 11 5m-5-8a2 2 0 1 1 0-4 2 2 0 0 1 0 4z"/>
    </symbol>
    <symbol id="log-out" fill="none" stroke-width="1.5" viewBox="0 0 24 24">
        <path stroke="currentColor" stroke-linecap="round" stroke-linejoin="round" d="M12 12h7m0 0-3 3m3-3-3-3m3-3V5a2 2 0 0 0-2-2H7a2 2 0 0 0-2 2v14a2 2 0 0 0 2 2h10a2 2 0 0 0 2-2v-1"/>
    </symbol>


</svg>